<svg width="24" height="18" viewBox="0 0 24 18" fill="none" xmlns="http://www.w3.org/2000/svg">
<path d="M19.3883 13.4461C18.9279 13.4461 18.537 13.0551 18.537 12.5948V10.3773H16.4435C15.9831 10.3773 15.5922 9.98631 15.5922 9.52598V8.92272C15.5922 8.4624 15.9831 8.07144 16.4435 8.07144H18.537V5.88962C18.537 5.42929 18.9279 5.03833 19.3883 5.03833H20.1681C20.6284 5.03833 21.0194 5.42929 21.0194 5.88962V8.07144H23.1487C23.609 8.07144 23.9999 8.4624 23.9999 8.92272V9.52598C23.9999 9.98631 23.609 10.3773 23.1487 10.3773H21.0194V12.5948C21.0194 13.0551 20.6284 13.4461 20.1681 13.4461H19.3883Z" fill="currentColor"/>
<path d="M1.81608 4C2.23016 4 2.60011 4.29217 2.7073 4.69154L4.33631 10.7956L6.15029 4.67683C6.2743 4.27746 6.64215 4 7.05833 4H8.11981C8.5339 4 8.91855 4.27746 9.04257 4.67683L10.9028 10.7956L12.5633 4.69154C12.6705 4.29217 13.0405 4 13.4545 4H14.1167C14.5328 4 14.8692 4.35313 14.8692 4.76931C14.8692 4.83027 14.8544 4.90804 14.8376 4.969L12.2859 14.0704C12.1619 14.4698 11.794 14.762 11.3778 14.762H10.2722C9.96532 14.762 9.67315 14.5476 9.56595 14.2386L7.49133 7.84235L5.44614 14.2386C5.33894 14.5455 5.04677 14.762 4.73989 14.762H3.63006C3.21598 14.762 2.84603 14.4845 2.72202 14.0851L0.0315292 4.969C0 4.89122 0 4.81555 0 4.73778C0.00210194 4.33841 0.323699 4 0.739885 4H1.81608Z" fill="currentColor"/>
</svg>
